<svg width="32" height="32" viewBox="0 0 32 32" fill="none" xmlns="http://www.w3.org/2000/svg">
  <rect width="32" height="32" rx="8" fill="url(#gradient)"/>
  
  <!-- Shopping bag -->
  <path d="M9 11L10 9H22L23 11V23C23 23.5523 22.5523 24 22 24H10C9.44772 24 9 23.5523 9 23V11Z" fill="white" fill-opacity="0.2" stroke="white" stroke-width="1.5" stroke-linejoin="round"/>
  
  <!-- Bag handles -->
  <path d="M12 11V9C12 7.89543 12.8954 7 14 7H18C19.1046 7 20 7.89543 20 9V11" stroke="white" stroke-width="1.5" stroke-linecap="round"/>
  
  <!-- AI sync arrows -->
  <path d="M13.5 17L15 15.5L16.5 17" stroke="white" stroke-width="1.3" stroke-linecap="round" stroke-linejoin="round"/>
  <path d="M18.5 19L17 20.5L15.5 19" stroke="white" stroke-width="1.3" stroke-linecap="round" stroke-linejoin="round"/>
  
  <!-- AI sparkle -->
  <circle cx="19.5" cy="15" r="1" fill="white"/>
  <circle cx="12.5" cy="21" r="1" fill="white"/>
  
  <defs>
    <linearGradient id="gradient" x1="0" y1="0" x2="32" y2="32" gradientUnits="userSpaceOnUse">
      <stop stop-color="#6366F1"/>
      <stop offset="0.5" stop-color="#8B5CF6"/>
      <stop offset="1" stop-color="#A855F7"/>
    </linearGradient>
  </defs>
</svg>
